<svg xmlns="http://www.w3.org/2000/svg" viewBox="0 0 1372 2145" width="1372" height="2145">
  <g fill="#FFFFFF">
    <g>
      <rect x="172.3" y="577" width="387.7" height="203" rx="101.5"/>
      <rect x="860" y="577" width="338.3" height="203" rx="101.5"/>
      <rect x="172.3" y="1364" width="387.7" height="204" rx="102"/>
      <rect x="860" y="1364" width="338.3" height="204" rx="102"/>
    </g>
    <g>
      <rect x="0.4" y="971" width="713.6" height="203" rx="101.5"/>
      <rect x="714" y="971" width="656.2" height="203" rx="101.5"/>
    </g>
    <g transform="translate(0,2145) scale(0.1,-0.1)">
      <path d="M2360 20885 c-133 -26 -253 -64 -355 -114 -616 -303 -882 -1031 -606 -1658 50 -114 111 -210 219 -343 585 -722 976 -1254 1354 -1845 346 -540 594 -979 864 -1530 924 -1888 1291 -3770 1098 -5635 -236 -2281 -1303 -4594 -3194 -6920 -226 -278 -253 -316 -321 -455 -97 -199 -135 -380 -126 -608 7 -189 43 -334 126 -502 141 -288 355 -491 647 -616 435 -186 925 -115 1303 187 93 75 189 184 445 504 1446 1806 2444 3570 3057 5400 88 263 224 721 259 869 l13 55 52 -190 c409 -1484 1045 -2878 1975 -4329 399 -624 882 -1285 1430 -1961 242 -297 340 -387 533 -489 181 -96 331 -135 553 -142 237 -9 416 31 626 138 280 144 514 412 615 704 132 382 79 807 -140 1129 -22 32 -139 183 -261 335 -888 1106 -1516 2068 -2041 3126 -696 1404 -1072 2755 -1166 4185 -16 235 -16 860 0 1095 69 1057 286 2043 676 3070 536 1412 1421 2890 2581 4306 172 210 225 285 281 395 94 183 131 326 140 535 24 564 -328 1074 -867 1253 -166 55 -261 69 -435 63 -337 -10 -624 -129 -848 -350 -165 -163 -726 -875 -1096 -1391 -1233 -1718 -2077 -3429 -2556 -5181 -25 -93 -48 -171 -50 -173 -4 -4 -3 -6 -50 168 -530 1962 -1562 3937 -3067 5869 -240 307 -484 605 -559 681 -168 169 -364 282 -597 342 -102 26 -138 31 -277 34 -110 2 -183 -1 -235 -11z"/>
    </g>
  </g>
</svg>